<mxfile host="app.diagrams.net" modified="2022-08-13T18:15:26.443Z" agent="5.0 (Windows NT 10.0; Win64; x64) AppleWebKit/537.36 (KHTML, like Gecko) Chrome/104.0.5112.81 Safari/537.36" etag="eq3L9xbXoFuBXBCyiE5T" version="20.2.3" type="github">
  <diagram id="dC7NXSx_it3oJHQlv1fk" name="Page-1">
    <mxGraphModel dx="1038" dy="551" grid="1" gridSize="10" guides="1" tooltips="1" connect="1" arrows="1" fold="1" page="1" pageScale="1" pageWidth="850" pageHeight="1100" background="#FFFFFF" math="0" shadow="0">
      <root>
        <mxCell id="0" />
        <mxCell id="1" parent="0" />
        <mxCell id="bfCHgLprOgHbyDuz-wAr-1" value="&lt;b&gt;ALTER TABLE&lt;/b&gt;" style="text;html=1;align=center;verticalAlign=middle;resizable=0;points=[];autosize=1;strokeColor=none;fillColor=none;" parent="1" vertex="1">
          <mxGeometry x="20" y="165" width="110" height="30" as="geometry" />
        </mxCell>
        <mxCell id="bfCHgLprOgHbyDuz-wAr-3" value="table_name" style="text;html=1;align=center;verticalAlign=middle;resizable=0;points=[];autosize=1;strokeColor=none;fillColor=none;" parent="1" vertex="1">
          <mxGeometry x="130" y="165" width="90" height="30" as="geometry" />
        </mxCell>
        <mxCell id="bfCHgLprOgHbyDuz-wAr-4" value="&lt;b&gt;ADD&lt;/b&gt;" style="text;html=1;align=left;verticalAlign=middle;resizable=0;points=[];autosize=1;strokeColor=none;fillColor=none;" parent="1" vertex="1">
          <mxGeometry x="235" y="65" width="50" height="30" as="geometry" />
        </mxCell>
        <mxCell id="bfCHgLprOgHbyDuz-wAr-5" value="column_name" style="text;html=1;align=left;verticalAlign=middle;resizable=0;points=[];autosize=1;strokeColor=none;fillColor=none;" parent="1" vertex="1">
          <mxGeometry x="400" y="65" width="100" height="30" as="geometry" />
        </mxCell>
        <mxCell id="bfCHgLprOgHbyDuz-wAr-6" value="data_type;" style="text;html=1;align=left;verticalAlign=middle;resizable=0;points=[];autosize=1;strokeColor=none;fillColor=none;" parent="1" vertex="1">
          <mxGeometry x="520" y="65" width="80" height="30" as="geometry" />
        </mxCell>
        <mxCell id="bfCHgLprOgHbyDuz-wAr-7" value="&lt;b&gt;DROP COLUMN&lt;/b&gt;" style="text;html=1;align=left;verticalAlign=middle;resizable=0;points=[];autosize=1;strokeColor=none;fillColor=none;" parent="1" vertex="1">
          <mxGeometry x="235" y="96" width="110" height="30" as="geometry" />
        </mxCell>
        <mxCell id="bfCHgLprOgHbyDuz-wAr-8" value="column_name" style="text;html=1;align=left;verticalAlign=middle;resizable=0;points=[];autosize=1;strokeColor=none;fillColor=none;" parent="1" vertex="1">
          <mxGeometry x="400" y="96" width="100" height="30" as="geometry" />
        </mxCell>
        <mxCell id="bfCHgLprOgHbyDuz-wAr-10" value="&lt;b&gt;MODIFY COLUMN&lt;/b&gt;" style="text;html=1;align=left;verticalAlign=middle;resizable=0;points=[];autosize=1;strokeColor=none;fillColor=none;" parent="1" vertex="1">
          <mxGeometry x="235" y="126" width="130" height="30" as="geometry" />
        </mxCell>
        <mxCell id="bfCHgLprOgHbyDuz-wAr-11" value="column_name" style="text;html=1;align=left;verticalAlign=middle;resizable=0;points=[];autosize=1;strokeColor=none;fillColor=none;" parent="1" vertex="1">
          <mxGeometry x="400" y="126" width="100" height="30" as="geometry" />
        </mxCell>
        <mxCell id="bfCHgLprOgHbyDuz-wAr-12" value="data_type;" style="text;html=1;align=left;verticalAlign=middle;resizable=0;points=[];autosize=1;strokeColor=none;fillColor=none;" parent="1" vertex="1">
          <mxGeometry x="520" y="126" width="80" height="30" as="geometry" />
        </mxCell>
        <mxCell id="bfCHgLprOgHbyDuz-wAr-13" value="&lt;b&gt;MODIFY&lt;/b&gt;" style="text;html=1;align=left;verticalAlign=middle;resizable=0;points=[];autosize=1;strokeColor=none;fillColor=none;horizontal=1;" parent="1" vertex="1">
          <mxGeometry x="235" y="190" width="70" height="30" as="geometry" />
        </mxCell>
        <mxCell id="bfCHgLprOgHbyDuz-wAr-14" value="column_name" style="text;html=1;align=left;verticalAlign=middle;resizable=0;points=[];autosize=1;strokeColor=none;fillColor=none;horizontal=1;" parent="1" vertex="1">
          <mxGeometry x="400" y="192" width="100" height="30" as="geometry" />
        </mxCell>
        <mxCell id="bfCHgLprOgHbyDuz-wAr-15" value="data_type" style="text;html=1;align=left;verticalAlign=middle;resizable=0;points=[];autosize=1;strokeColor=none;fillColor=none;" parent="1" vertex="1">
          <mxGeometry x="520" y="190" width="80" height="30" as="geometry" />
        </mxCell>
        <mxCell id="bfCHgLprOgHbyDuz-wAr-16" value="&lt;b&gt;NOT NULL;&lt;/b&gt;" style="text;html=1;align=left;verticalAlign=middle;resizable=0;points=[];autosize=1;strokeColor=none;fillColor=none;" parent="1" vertex="1">
          <mxGeometry x="640" y="190" width="90" height="30" as="geometry" />
        </mxCell>
        <mxCell id="bfCHgLprOgHbyDuz-wAr-17" value="&lt;b&gt;ADD CONSTRAINT&lt;/b&gt;" style="text;html=1;align=left;verticalAlign=middle;resizable=0;points=[];autosize=1;strokeColor=none;fillColor=none;" parent="1" vertex="1">
          <mxGeometry x="235" y="220" width="130" height="30" as="geometry" />
        </mxCell>
        <mxCell id="bfCHgLprOgHbyDuz-wAr-18" value="(column_name1, column_name2);" style="text;html=1;align=left;verticalAlign=middle;resizable=0;points=[];autosize=1;strokeColor=none;fillColor=none;" parent="1" vertex="1">
          <mxGeometry x="640" y="220" width="210" height="30" as="geometry" />
        </mxCell>
        <mxCell id="bfCHgLprOgHbyDuz-wAr-21" value="constraint_name" style="text;html=1;align=left;verticalAlign=middle;resizable=0;points=[];autosize=1;strokeColor=none;fillColor=none;" parent="1" vertex="1">
          <mxGeometry x="400" y="220" width="110" height="30" as="geometry" />
        </mxCell>
        <mxCell id="bfCHgLprOgHbyDuz-wAr-22" value="&lt;b&gt;UINQUE&lt;/b&gt;" style="text;html=1;align=left;verticalAlign=middle;resizable=0;points=[];autosize=1;strokeColor=none;fillColor=none;" parent="1" vertex="1">
          <mxGeometry x="520" y="220" width="70" height="30" as="geometry" />
        </mxCell>
        <mxCell id="bfCHgLprOgHbyDuz-wAr-23" value="&lt;b&gt;ADD CONSTRAINT&lt;/b&gt;" style="text;html=1;align=left;verticalAlign=middle;resizable=0;points=[];autosize=1;strokeColor=none;fillColor=none;" parent="1" vertex="1">
          <mxGeometry x="235" y="280" width="130" height="30" as="geometry" />
        </mxCell>
        <mxCell id="bfCHgLprOgHbyDuz-wAr-25" value="constraint_name" style="text;html=1;align=left;verticalAlign=middle;resizable=0;points=[];autosize=1;strokeColor=none;fillColor=none;" parent="1" vertex="1">
          <mxGeometry x="400" y="280" width="110" height="30" as="geometry" />
        </mxCell>
        <mxCell id="bfCHgLprOgHbyDuz-wAr-26" value="&lt;b&gt;CHECK (CONDITION);&lt;/b&gt;" style="text;html=1;align=left;verticalAlign=middle;resizable=0;points=[];autosize=1;strokeColor=none;fillColor=none;" parent="1" vertex="1">
          <mxGeometry x="520" y="283" width="150" height="30" as="geometry" />
        </mxCell>
        <mxCell id="bfCHgLprOgHbyDuz-wAr-27" value="(column_name1, column_name2);" style="text;html=1;align=left;verticalAlign=middle;resizable=0;points=[];autosize=1;strokeColor=none;fillColor=none;" parent="1" vertex="1">
          <mxGeometry x="640" y="250" width="210" height="30" as="geometry" />
        </mxCell>
        <mxCell id="bfCHgLprOgHbyDuz-wAr-28" value="&lt;b&gt;PRIMARY KEY&lt;/b&gt;" style="text;html=1;align=left;verticalAlign=middle;resizable=0;points=[];autosize=1;strokeColor=none;fillColor=none;" parent="1" vertex="1">
          <mxGeometry x="520" y="250" width="110" height="30" as="geometry" />
        </mxCell>
        <mxCell id="bfCHgLprOgHbyDuz-wAr-29" value="constraint_name" style="text;html=1;align=left;verticalAlign=middle;resizable=0;points=[];autosize=1;strokeColor=none;fillColor=none;" parent="1" vertex="1">
          <mxGeometry x="400" y="250" width="110" height="30" as="geometry" />
        </mxCell>
        <mxCell id="bfCHgLprOgHbyDuz-wAr-30" value="&lt;b&gt;ADD CONSTRAINT&lt;/b&gt;" style="text;html=1;align=left;verticalAlign=middle;resizable=0;points=[];autosize=1;strokeColor=none;fillColor=none;" parent="1" vertex="1">
          <mxGeometry x="235" y="250" width="130" height="30" as="geometry" />
        </mxCell>
        <mxCell id="bfCHgLprOgHbyDuz-wAr-32" value="constraint_name;" style="text;html=1;align=left;verticalAlign=middle;resizable=0;points=[];autosize=1;strokeColor=none;fillColor=none;" parent="1" vertex="1">
          <mxGeometry x="400" y="313" width="120" height="30" as="geometry" />
        </mxCell>
        <mxCell id="bfCHgLprOgHbyDuz-wAr-33" value="&lt;b&gt;DROP CONSTRAINT&lt;/b&gt;" style="text;html=1;align=left;verticalAlign=middle;resizable=0;points=[];autosize=1;strokeColor=none;fillColor=none;" parent="1" vertex="1">
          <mxGeometry x="235" y="310" width="140" height="30" as="geometry" />
        </mxCell>
        <mxCell id="bfCHgLprOgHbyDuz-wAr-34" value="&lt;b&gt;RENAME COLUMN&lt;/b&gt;" style="text;html=1;align=left;verticalAlign=middle;resizable=0;points=[];autosize=1;strokeColor=none;fillColor=none;" parent="1" vertex="1">
          <mxGeometry x="235" y="162" width="130" height="30" as="geometry" />
        </mxCell>
        <mxCell id="bfCHgLprOgHbyDuz-wAr-35" value="column_name" style="text;html=1;align=left;verticalAlign=middle;resizable=0;points=[];autosize=1;strokeColor=none;fillColor=none;" parent="1" vertex="1">
          <mxGeometry x="400" y="163" width="100" height="30" as="geometry" />
        </mxCell>
        <mxCell id="bfCHgLprOgHbyDuz-wAr-36" value="new_column_name;" style="text;html=1;align=left;verticalAlign=middle;resizable=0;points=[];autosize=1;strokeColor=none;fillColor=none;" parent="1" vertex="1">
          <mxGeometry x="520" y="160" width="130" height="30" as="geometry" />
        </mxCell>
        <mxCell id="zm8ipmSz2n8aEdC5O1ra-1" value="&lt;font color=&quot;#ff3333&quot; style=&quot;font-size: 8px; line-height: 1.2;&quot;&gt;add new column&lt;/font&gt;" style="text;html=1;align=left;verticalAlign=middle;resizable=0;points=[];autosize=1;strokeColor=none;fillColor=none;" vertex="1" parent="1">
          <mxGeometry x="235" y="48" width="80" height="30" as="geometry" />
        </mxCell>
        <mxCell id="zm8ipmSz2n8aEdC5O1ra-2" value="&lt;font color=&quot;#ff3333&quot; style=&quot;font-size: 8px; line-height: 1.2;&quot;&gt;drop column&lt;/font&gt;" style="text;html=1;align=left;verticalAlign=middle;resizable=0;points=[];autosize=1;strokeColor=none;fillColor=none;" vertex="1" parent="1">
          <mxGeometry x="235" y="78" width="70" height="30" as="geometry" />
        </mxCell>
        <mxCell id="zm8ipmSz2n8aEdC5O1ra-3" value="&lt;font color=&quot;#ff3333&quot; style=&quot;font-size: 8px; line-height: 1.2;&quot;&gt;modify data type&lt;/font&gt;" style="text;html=1;align=left;verticalAlign=middle;resizable=0;points=[];autosize=1;strokeColor=none;fillColor=none;" vertex="1" parent="1">
          <mxGeometry x="236" y="110" width="80" height="30" as="geometry" />
        </mxCell>
        <mxCell id="zm8ipmSz2n8aEdC5O1ra-4" value="&lt;font color=&quot;#ff3333&quot; style=&quot;font-size: 8px; line-height: 1.2;&quot;&gt;rename column&lt;/font&gt;" style="text;html=1;align=left;verticalAlign=middle;resizable=0;points=[];autosize=1;strokeColor=none;fillColor=none;" vertex="1" parent="1">
          <mxGeometry x="236" y="145" width="80" height="30" as="geometry" />
        </mxCell>
        <mxCell id="zm8ipmSz2n8aEdC5O1ra-5" value="&lt;font color=&quot;#ff3333&quot; style=&quot;font-size: 8px; line-height: 1.2;&quot;&gt;add not null constraint&lt;/font&gt;" style="text;html=1;align=left;verticalAlign=middle;resizable=0;points=[];autosize=1;strokeColor=none;fillColor=none;" vertex="1" parent="1">
          <mxGeometry x="235" y="175" width="100" height="30" as="geometry" />
        </mxCell>
        <mxCell id="zm8ipmSz2n8aEdC5O1ra-6" value="&lt;font color=&quot;#ff3333&quot; style=&quot;font-size: 8px; line-height: 1.2;&quot;&gt;add uinque constraint&lt;/font&gt;" style="text;html=1;align=left;verticalAlign=middle;resizable=0;points=[];autosize=1;strokeColor=none;fillColor=none;" vertex="1" parent="1">
          <mxGeometry x="235" y="205" width="100" height="30" as="geometry" />
        </mxCell>
        <mxCell id="zm8ipmSz2n8aEdC5O1ra-7" value="&lt;font color=&quot;#ff3333&quot; style=&quot;font-size: 8px; line-height: 1.2;&quot;&gt;add primary constraint&lt;/font&gt;" style="text;html=1;align=left;verticalAlign=middle;resizable=0;points=[];autosize=1;strokeColor=none;fillColor=none;" vertex="1" parent="1">
          <mxGeometry x="236" y="235" width="100" height="30" as="geometry" />
        </mxCell>
        <mxCell id="zm8ipmSz2n8aEdC5O1ra-8" value="&lt;font color=&quot;#ff3333&quot; style=&quot;font-size: 8px; line-height: 1.2;&quot;&gt;add check constraint&lt;/font&gt;" style="text;html=1;align=left;verticalAlign=middle;resizable=0;points=[];autosize=1;strokeColor=none;fillColor=none;" vertex="1" parent="1">
          <mxGeometry x="235" y="265" width="100" height="30" as="geometry" />
        </mxCell>
        <mxCell id="zm8ipmSz2n8aEdC5O1ra-9" value="&lt;font color=&quot;#ff3333&quot; style=&quot;font-size: 8px; line-height: 1.2;&quot;&gt;drop constraint&lt;/font&gt;" style="text;html=1;align=left;verticalAlign=middle;resizable=0;points=[];autosize=1;strokeColor=none;fillColor=none;" vertex="1" parent="1">
          <mxGeometry x="235" y="295" width="80" height="30" as="geometry" />
        </mxCell>
      </root>
    </mxGraphModel>
  </diagram>
</mxfile>
